<svg xmlns="http://www.w3.org/2000/svg" width="64" height="64" viewBox="0 0 64 64" fill="none"><circle cx="32" cy="32" r="31" stroke="white" stroke-opacity="0.2"/><path fill="white" d="M39.7 20.2c1.7-2.1 2.6-4.4 2.4-6.7-2.3.1-4.9 1.6-6.5 3.6-1.4 1.8-2.7 4.2-2.4 6.6 2.5.2 4.9-1.3 6.5-3.5Zm5.2 24.8c-1 2.2-1.5 3.1-2.8 5-1.8 2.7-4.3 6.1-7.5 6.1-2.8 0-3.6-1.8-6.8-1.8-3.3 0-4.1 1.8-6.9 1.8-3.2 0-5.6-2.9-7.5-5.6-4.1-6.1-7.3-17.1-3.1-24.6 2.2-3.8 6.1-6.2 10.4-6.2 3 0 5.4 2 6.8 2s4.8-2.4 8.1-2c1.4.1 5.3.6 7.7 4.3-0.2.1-4.6 2.7-4.4 7.9.2 6 5.7 8 6 8.1Z"/></svg>